inDegrees=yes
name=ik_S53_A03_T02
DataType=double
version=3
OpenSimVersion=4.3-2021-08-27-4bc7ad9
endheader
time	pelvis_tilt	pelvis_list	pelvis_rotation	pelvis_tx	pelvis_ty	pelvis_tz	hip_flexion_r	hip_adduction_r	hip_rotation_r	knee_angle_r	knee_angle_r_beta	ankle_angle_r	subtalar_angle_r	mtp_angle_r	hip_flexion_l	hip_adduction_l	hip_rotation_l	knee_angle_l	knee_angle_l_beta	ankle_angle_l	subtalar_angle_l	mtp_angle_l	lumbar_extension	lumbar_bending	lumbar_rotation	arm_flex_r	arm_add_r	arm_rot_r	elbow_flex_r	pro_sup_r	wrist_flex_r	wrist_dev_r	arm_flex_l	arm_add_l	arm_rot_l	elbow_flex_l	pro_sup_l	wrist_flex_l	wrist_dev_l
10.77999999999986	5.593072743336849	1.192846595507941	94.57966682593839	0	0.9399999999999999	0	-0.8779740012259083	9.012722649022649	-8.989762788995339	13.73142604272806	0.2396585954397003	0	0	0	20.39365538967971	-12.36766629046544	-6.740038410360283	3.211368113707513	0.05604894707775574	0	0	0	0	0	0	33.85905739864482	-33.85905739864484	4.541877400788643	78.43770376973846	85.45812285254885	0	0	33.85905739864482	-33.85905739864484	4.541877400788643	78.43770376973846	85.45812285246159	0	0
10.79999999999986	5.326913581995862	1.26124065027809	94.51981730131634	0	0.9399999999999999	0	-1.480638924734959	8.782499471238587	-9.362255747955992	14.90016170100797	0.2600568807621479	0	0	0	20.79500869729121	-12.45131168102929	-5.263236581394637	4.701741512706384	0.08206086997442522	0	0	0	0	0	0	33.86214228619214	-33.86214228619216	4.542131491733143	78.44136074033068	85.45786876161721	0	0	33.86214228619214	-33.86214228619216	4.542131491733143	78.44136074033068	85.45786876152997	0	0
10.81999999999986	3.638219194785733	1.517659776283468	94.74859007600804	0	0.9399999999999999	0	-2.307325919302251	7.103131802165191	-9.936679569098724	16.17887927045463	0.2823747125520914	0	0	0	20.76700088178181	-10.24741588680756	-4.021750411097996	6.673935005814272	0.1164821399155659	0	0	0	0	0	0	33.86507750213092	-33.86507750213091	4.542373046490159	78.44483722986641	85.45762720687236	0	0	33.86507750213092	-33.86507750213091	4.542373046490159	78.44483722986641	85.45762720678513	0	0
10.83999999999986	3.00682195029512	1.730432821291256	94.94660667338772	0	0.9399999999999999	0	-3.11822481993252	6.169775423125532	-10.27404959269331	19.56099361682394	0.3414037435751717	0	0	0	19.85685408294615	-9.583603743337035	-3.199557747807047	6.862238617876931	0.1197686579394574	0	0	0	0	0	0	33.86831667835514	-33.86831667835512	4.542639060239218	78.44866561236606	85.45736119313669	0	0	33.86831667835514	-33.86831667835512	4.542639060239218	78.44866561236606	85.45736119304946	0	0
10.85999999999986	1.626358357259422	2.208522223967612	95.51012541074758	0	0.9399999999999999	0	-3.630305908754329	4.189220799103683	-10.92966228952744	22.00613992089395	0.3840795972741639	0	0	0	19.25052834879726	-8.120305107257321	-3.311412727177322	10.3340094300357	0.1803624894862657	0	0	0	0	0	0	33.87433812212392	-33.87433812212391	4.54313044665019	78.45573677018024	85.4568698067505	0	0	33.87433812212392	-33.87433812212391	4.54313044665019	78.45573677018024	85.45686980666335	0	0
10.87999999999986	0.3031305622663995	2.621559712706175	96.26405537395965	0	0.9399999999999999	0	-4.132267349662023	2.962931282202031	-11.70355583409142	22.01740357973608	0.3842761852067805	0	0	0	18.34540359869543	-6.730138981829055	-1.077861891837005	10.55003983270365	0.1841329312972304	0	0	0	0	0	0	33.87713681866878	-33.87713681866877	4.543359818310664	78.4590376566335	85.45664043510159	0	0	33.87713681866878	-33.87713681866877	4.543359818310664	78.4590376566335	85.45664043501449	0	0
10.89999999999986	-0.8501515888261775	3.239409504515579	97.20350341719481	0	0.9399999999999999	0	-4.693792542792655	0.3996433870951544	-13.13047035171621	28.14411496768071	0.4912074712458459	0	0	0	17.86347251323447	-4.99698208924043	1.66712985820289	12.01814712564726	0.2097562373316373	0	0	0	0	0	0	34.00590045825718	-34.00590045825717	4.552344904643421	78.58803180095803	85.44765534921095	0	0	34.00590045825718	-34.00590045825717	4.552344904643421	78.58803180095803	85.44765534912557	0	0
10.91999999999986	-1.85176543132478	4.428021161772075	98.13784632375209	0	0.9399999999999999	0	-5.489679738695844	-2.180092421933057	-14.89154859346037	32.23617910609862	0.5626274636640235	0	0	0	15.06008065984196	-1.838206021869513	6.568931349670894	12.04488647806262	0.2102229270711365	0	0	0	0	0	0	34.03193494560835	-34.03193494560833	4.554227568443143	78.61507444685431	85.44577268550444	0	0	34.03193494560835	-34.03193494560833	4.554227568443143	78.61507444685431	85.44577268541943	0	0
10.93999999999986	-2.595905376749256	5.999372820716825	98.5759207943413	0	0.9399999999999999	0	-6.251802868562186	-4.539198038206645	-16.25021443340981	36.93122918902685	0.6445715461571538	0	0	0	13.42434028026153	-1.189442485251176	6.855929044993161	13.15992237041533	0.2296839746706043	0	0	0	0	0	0	34.15113059271232	-34.1511305927123	4.562480550749738	78.73354098967262	85.43751970360331	0	0	34.15113059271232	-34.1511305927123	4.562480550749738	78.73354098967262	85.43751970351981	0	0
10.95999999999986	-2.925833015408718	7.133088418389243	98.11143041453523	0	0.9399999999999999	0	-5.593596531105449	-6.039438527384042	-16.30945283871832	42.93962852566215	0.749437897356083	0	0	0	10.33288292057359	-0.6601373771963968	6.146774834431605	12.26844340732059	0.2141247315523361	0	0	0	0	0	0	34.15699155894065	-34.15699155894063	4.562950965176666	78.74030713007434	85.43704928919998	0	0	34.15699155894065	-34.15699155894063	4.562950965176666	78.74030713007434	85.43704928911666	0	0
10.97999999999985	-3.135823984434202	7.283006625892218	97.02091027114976	0	0.9399999999999999	0	-3.786765683872163	-8.332571902699216	-15.69530947341826	45.2761361152544	0.7902176477923042	0	0	0	9.03685373975779	-0.1282891218128464	4.522507236940098	11.58134293387507	0.2021325659986999	0	0	0	0	0	0	34.22317597812116	-34.22317597812113	4.567480177001915	78.80530984100429	85.43252007759682	0	0	34.22317597812116	-34.22317597812113	4.567480177001915	78.80530984100429	85.43252007751434	0	0
10.99999999999985	-3.327064490808358	7.104400105130289	96.46043902222374	0	0.9399999999999999	0	-1.364161308891544	-10.17408003932692	-14.43727508106584	51.32629667775724	0.8958128698822909	0	0	0	8.677438347735226	0.5698907895934842	2.739829495708634	12.01057373869622	0.2096240567938141	0	0	0	0	0	0	34.22879756685369	-34.22879756685367	4.567930765142133	78.81179031040237	85.4320694894793	0	0	34.22879756685369	-34.22879756685367	4.567930765142133	78.81179031040237	85.43206948939685	0	0
11.01999999999985	-4.60913104598309	6.620799606972148	93.8231996086331	0	0.9399999999999999	0	4.258451705259467	-12.81077917070447	-9.504165611276036	58.50354033126621	1.021079402853889	0	0	0	8.572893426523425	1.655001509679646	-1.617800104125547	12.59490656064409	0.2198225884642742	0	0	0	0	0	0	34.40942333445585	-34.40942333445583	4.580167260741946	78.98738189825193	85.41983299447836	0	0	34.40942333445585	-34.40942333445583	4.580167260741946	78.98738189825193	85.41983299439823	0	0
11.03999999999985	-4.954072650892943	6.771718979404541	92.97765858060521	0	0.9399999999999999	0	6.759797584039303	-13.90779393007939	-8.68524383621096	61.55034911909337	1.074256247880171	0	0	0	7.440371527766329	1.997297158629337	-3.684305757573427	12.22497387178994	0.2133660450330136	0	0	0	0	0	0	34.47316386329327	-34.47316386329326	4.584432470036352	79.04857546525405	85.41556778539214	0	0	34.47316386329327	-34.47316386329326	4.584432470036352	79.04857546525405	85.4155677853128	0	0
11.05999999999985	-5.692280444465386	7.227291070519768	91.89069383013825	0	0.9399999999999999	0	6.539125628139448	-14.6230442812811	-7.594161294688995	61.59074045548371	1.074961209689463	0	0	0	5.940754965042846	2.995598960036131	-5.773534708517809	12.4488856525114	0.2172740428406066	0	0	0	0	0	0	34.475261677042	-34.47526167704198	4.584596113128899	79.05092778063985	85.41540414230789	0	0	34.475261677042	-34.47526167704198	4.584596113128899	79.05092778063985	85.41540414222857	0	0
11.07999999999985	-6.322121953097948	7.245952408473029	91.7836569766874	0	0.9399999999999999	0	9.175122828639456	-16.1033231445409	-7.83987650790115	61.28804888022011	1.069678245083065	0	0	0	5.224896579260649	4.13681063420691	-6.595875869467219	13.06781917045145	0.2280764705796119	0	0	0	0	0	0	34.54033283596551	-34.54033283596549	4.588934786781404	79.1131732986253	85.41106546886712	0	0	34.54033283596551	-34.54033283596549	4.588934786781404	79.1131732986253	85.41106546878862	0	0
11.09999999999985	-6.676817773913363	7.020616702223562	92.14675778671634	0	0.9399999999999999	0	11.85519075974629	-16.47227190530801	-8.377572066120729	61.12743579259219	1.066875017882163	0	0	0	4.146236210082142	5.465346317233453	-6.348402738873296	12.35003742676829	0.2155488158416348	0	0	0	0	0	0	34.57863325968462	-34.5786332596846	4.59147661752132	79.14963738044852	85.4085236382511	0	0	34.57863325968462	-34.5786332596846	4.59147661752132	79.14963738044852	85.40852363817309	0	0
11.11999999999985	-6.687083352070111	7.10578233071476	92.60163930552709	0	0.9399999999999999	0	14.09458086285406	-15.90661066476103	-9.111804051448633	59.82796325650615	1.044194943588221	0	0	0	3.241198459450007	6.138119921597036	-5.389318958066986	11.98489208634658	0.2091758274029603	0	0	0	0	0	0	34.6259639609769	-34.62596396097688	4.594633092157995	79.19492226532398	85.40536716376839	0	0	34.6259639609769	-34.62596396097688	4.594633092157995	79.19492226532398	85.40536716369104	0	0
11.13999999999985	-6.315744303943476	7.174957246724153	92.89839154113524	0	0.9399999999999999	0	16.47879348453236	-14.71344764834472	-9.232351813383051	57.9701828405229	1.011770558550243	0	0	0	3.162932780884942	5.749878283182725	-5.074427836278393	12.62139146842698	0.2202848373071727	0	0	0	0	0	0	34.69336204634852	-34.6933620463485	4.599101020380782	79.25901763280964	85.40089923576342	0	0	34.69336204634852	-34.6933620463485	4.599101020380782	79.25901763280964	85.40089923568689	0	0
11.15999999999985	-6.094501237667215	7.241606099614887	93.03040147082048	0	0.9399999999999999	0	18.70669028747501	-13.87832664235122	-8.758792772390748	55.43182900926965	0.9674679266142617	0	0	0	3.077846712355741	5.512787563880368	-4.959158639877968	13.2680189410063	0.2315706157375312	0	0	0	0	0	0	34.75863822510498	-34.75863822510496	4.603414521599249	79.32089504102277	85.39658573475515	0	0	34.75863822510498	-34.75863822510496	4.603414521599249	79.32089504102277	85.39658573467938	0	0
